#!OML:ASF C:\ViconDB\ViconDB\414\Spring2016\041811\Spring2016.ASF
:FULLY-SPECIFIED
:DEGREES
417
root 12.9143 18.8768 -11.7576 729.577 5.55249 355.698
lowerback 6.248 2.32186 -7.37779
upperback -0.294277 2.46248 -1.94699
thorax -4.04498 1.35157 1.86674
lowerneck -13.3207 -8.43283 -19.8203
upperneck 13.9264 -12.6724 27.365
head 9.95724 -4.99575 11.6889
rclavicle 1.23246e-014 -2.70347e-014
rhumerus -29.6722 -43.3362 8.56531
rradius 22.6812
rwrist 62.1219
rhand -23.8978 -11.2211
rfingers 7.12502
rthumb 2.57606 -41.1853
lclavicle 1.23246e-014 -2.70347e-014
lhumerus -27.4634 -12.4043 1.37476
lradius 23.2735
lwrist -4.21207
lhand -29.2344 25.1142
lfingers 7.12502
lthumb -2.57807 55.0783
rfemur -4.23409 -205.238 -2.24462
rtibia 24.1795
rfoot -15.2409 -42.2198
rtoes -37.9187
lfemur -15.3356 -23.7154 -5.62248
ltibia 20.6599
lfoot -19.0271 -7.02685
ltoes -11.0063
418
root 13.0989 18.7588 -11.8685 729.193 2.65399 355.177
lowerback 6.66095 2.49703 -6.58098
upperback -0.159974 2.73196 -1.75889
thorax -4.1306 1.46918 1.57821
lowerneck -12.6932 -8.45938 -20.2594
upperneck 13.647 -12.6876 27.4226
head 9.77847 -5.08138 11.7836
rclavicle 2.5842e-014 -9.54166e-015
rhumerus -27.6693 -42.9884 7.33577
rradius 23.1043
rwrist 61.4932
rhand -24.2477 -11.1016
rfingers 7.12502
rthumb 2.23814 -41.0696
lclavicle 2.5842e-014 -9.54166e-015
lhumerus -27.3118 -12.8259 1.19767
lradius 23.4466
lwrist -4.96669
lhand -30.809 25.5584
lfingers 7.12502
lthumb -4.09872 55.4987
rfemur -4.68511 -200.567 -3.55573
rtibia 23.3615
rfoot -12.347 -41.6571
rtoes -38.8083
lfemur -16.0716 -21.8788 -6.56226
ltibia 24.0023
lfoot -20.2778 -5.69705
ltoes -11.1139
419
root 13.2836 18.6444 -11.987 728.798 -0.310461 355.456
lowerback 7.37652 2.65503 -6.73582
upperback -0.188154 2.86377 -1.73814
thorax -4.58299 1.54789 1.63767
lowerneck -11.7613 -8.37431 -20.7722
upperneck 13.4035 -12.6201 27.6174
head 9.54719 -5.14489 11.9793
rclavicle -1.59028e-015 7.95139e-015
rhumerus -25.3301 -40.5606 5.1412
rradius 24.1259
rwrist 59.2
rhand -24.2284 -11.0271
rfingers 7.12502
rthumb 2.25676 -40.995
lclavicle -1.59028e-015 7.95139e-015
lhumerus -27.3229 -13.5029 0.995183
lradius 23.3669
lwrist -6.3585
lhand -31.9467 25.1063
lfingers 7.12502
lthumb -5.19729 55.0226
rfemur -5.27506 -201.296 -5.3611
rtibia 22.6487
rfoot -15.2469 -42.5811
rtoes -37.8107
lfemur -16.8424 -19.8791 -8.30119
ltibia 27.0125
lfoot -21.0498 -4.41076
ltoes -11.2476
420
root 13.4441 18.5408 -12.0896 728.685 -3.12579 356.435
lowerback 7.83262 2.86405 -7.88791
upperback -0.346873 2.97568 -1.86659
thorax -5.07342 1.64387 2.10041
lowerneck -10.8993 -8.42491 -21.2404
upperneck 13.2674 -12.7968 27.8701
head 9.4417 -5.31107 12.1595
rclavicle -5.20816e-014 5.725e-014
rhumerus -23.7802 -38.3017 3.52102
rradius 25.2328
rwrist 57.2174
rhand -24.5125 -11.1148
rfingers 7.12502
rthumb 1.98244 -41.0853
lclavicle -5.20816e-014 5.725e-014
lhumerus -27.168 -13.8479 0.854905
lradius 22.9522
lwrist -9.63413
lhand -33.1198 24.5075
lfingers 7.12502
lthumb -6.3299 54.3929
rfemur -5.81864 -200.5 -7.98926
rtibia 22.1337
rfoot -15.0619 -43.4595
rtoes -36.4012
lfemur -17.8974 -18.0825 -10.4516
ltibia 29.6366
lfoot -21.6666 -3.32899
ltoes -11.4575
421
root 13.5491 18.4759 -12.1664 728.654 -5.51032 357.662
lowerback 8.21131 2.90428 -9.68956
upperback -0.76482 2.77688 -1.9396
thorax -5.806 1.62941 3.01483
lowerneck -9.76152 -8.28909 -21.9623
upperneck 13.3454 -12.7608 28.1383
head 9.30812 -5.40858 12.4617
rclavicle 2.82274e-014 -1.59028e-014
rhumerus -22.234 -34.2724 1.48722
rradius 26.6071
rwrist 53.8107
rhand -24.5818 -11.145
rfingers 7.12502
rthumb 1.91549 -41.1162
lclavicle 2.82274e-014 -1.59028e-014
lhumerus -27.4923 -15.8071 1.33276
lradius 23.9986
lwrist -8.80264
lhand -33.4064 24.9694
lfingers 7.12502
lthumb -6.60658 54.8463
rfemur -6.65359 -196.495 -10.8828
rtibia 21.9751
rfoot -10.1082 -43.2969
rtoes -36.5571
lfemur -18.9496 -16.1087 -12.4231
ltibia 31.6921
lfoot -22.312 -3.32728
ltoes -11.0653
422
root 13.6294 18.4406 -12.2142 728.57 -7.44439 357.752
lowerback 8.27208 2.97836 -9.94058
upperback -0.818629 2.81778 -2.25627
thorax -5.90142 1.65534 2.80832
lowerneck -9.19178 -8.54411 -21.8826
upperneck 13.2552 -13.3635 28.6203
head 9.3944 -5.71668 12.567
rclavicle -2.62396e-014 3.18055e-015
rhumerus -22.5401 -30.0794 -0.375028
rradius 28.3577
rwrist 49.8228
rhand -24.8304 -11.7441
rfingers 7.12502
rthumb 1.67535 -41.7172
lclavicle -2.62396e-014 3.18055e-015
lhumerus -26.1031 -15.9969 0.791695
lradius 24.4943
lwrist -8.26333
lhand -33.0904 24.8212
lfingers 7.12502
lthumb -6.30145 54.7074
rfemur -7.87104 -192.093 -12.2208
rtibia 22.1416
rfoot -3.3154 -42.4807
rtoes -37.0934
lfemur -19.5441 -14.2403 -12.9505
ltibia 33.1264
lfoot -22.7175 -3.71217
ltoes -10.6499
423
root 13.7172 18.4044 -12.2411 728.319 -9.37163 358.152
lowerback 8.15399 2.9368 -10.5481
upperback -0.853534 2.71485 -2.20492
thorax -5.89445 1.62503 3.21633
lowerneck -8.3331 -8.63445 -22.5209
upperneck 13.1232 -13.5873 28.8158
head 9.31846 -5.92251 12.7562
rclavicle 7.15625e-015 2.06736e-014
rhumerus -21.8369 -24.9476 -2.24251
rradius 29.6029
rwrist 44.7396
rhand -25.8754 -12.1722
rfingers 7.12502
rthumb 0.666134 -42.1509
lclavicle 7.15625e-015 2.06736e-014
lhumerus -25.7359 -15.4195 1.15869
lradius 24.8045
lwrist -8.97359
lhand -32.3269 25.6424
lfingers 7.12502
lthumb -5.56436 55.5493
rfemur -9.37644 -189.136 -13.6632
rtibia 22.3738
rfoot 1.79998 -41.7168
rtoes -38.3682
lfemur -19.7043 -12.474 -13.9738
ltibia 34.1007
lfoot -22.9601 -3.82556
ltoes -10.4152
424
root 13.807 18.3799 -12.2444 728.304 -11.1252 357.928
lowerback 7.47007 2.78109 -10.2986
upperback -0.79466 2.63346 -2.11645
thorax -5.4219 1.5591 3.21599
lowerneck -7.5575 -8.78387 -22.9796
upperneck 12.9362 -13.9007 28.9611
head 9.25204 -6.15823 12.8644
rclavicle -1.96797e-014 2.06736e-014
rhumerus -21.5703 -20.2681 -4.06745
rradius 31.0606
rwrist 40.2459
rhand -26.5866 -12.176
rfingers 7.12502
rthumb -0.0208466 -42.1558
lclavicle -1.96797e-014 2.06736e-014
lhumerus -25.6432 -15.0882 1.6482
lradius 25.3724
lwrist -9.3287
lhand -32.1912 25.0672
lfingers 7.12502
lthumb -5.4333 54.9776
rfemur -10.7829 -188.4 -14.0614
rtibia 22.5483
rfoot 4.47365 -41.2538
rtoes -40.0585
lfemur -19.8118 -11.1149 -14.32
ltibia 34.9246
lfoot -23.2586 -3.48318
ltoes -10.3606
425
root 13.8908 18.357 -12.2644 728.355 -12.8197 357.222
lowerback 6.98804 2.54736 -9.30866
upperback -0.716343 2.47891 -2.12513
thorax -4.99423 1.43788 2.70418
lowerneck -7.19459 -8.77358 -23.4367
upperneck 12.9405 -14.0765 29.7112
head 9.36273 -6.27542 13.2964
rclavicle -3.85642e-014 5.725e-014
rhumerus -21.475 -16.131 -6.16417
rradius 32.6352
rwrist 36.5923
rhand -26.7394 -12.2842
rfingers 7.12502
rthumb -0.168423 -42.2639
lclavicle -3.85642e-014 5.725e-014
lhumerus -25.4688 -14.5244 1.81411
lradius 25.6528
lwrist -9.22214
lhand -32.1705 23.5958
lfingers 7.12502
lthumb -5.41333 53.5066
rfemur -12.1671 -187.793 -13.8367
rtibia 22.6225
rfoot 8.0053 -40.7579
rtoes -39.0646
lfemur -19.8923 -9.94219 -14.0755
ltibia 35.6508
lfoot -23.6514 -2.85137
ltoes -10.2368
426
root 13.9627 18.3472 -12.2948 728.353 -14.5496 356.193
lowerback 6.62421 2.42391 -8.49027
upperback -0.536506 2.45473 -1.77942
thorax -4.57106 1.3918 2.63647
lowerneck -6.6249 -8.97217 -23.5531
upperneck 12.7203 -14.4397 29.6937
head 9.30001 -6.50831 13.2398
rclavicle -3.47873e-014 9.54166e-015
rhumerus -21.2771 -13.7199 -7.70552
rradius 33.8208
rwrist 34.7253
rhand -26.7665 -11.8233
rfingers 7.12502
rthumb -0.19453 -41.803
lclavicle -3.47873e-014 9.54166e-015
lhumerus -25.4462 -14.4189 2.82913
lradius 25.9431
lwrist -8.22839
lhand -32.0574 23.321
lfingers 7.12502
lthumb -5.30411 53.2346
rfemur -13.4519 -188.303 -13.0608
rtibia 22.5581
rfoot 9.62543 -40.6933
rtoes -38.1891
lfemur -19.7342 -8.96986 -13.4399
ltibia 36.249
lfoot -23.922 -2.00263
ltoes -10.5482
427
root 14.0345 18.3425 -12.3247 728.179 -16.5406 355.654
lowerback 6.43389 2.2771 -7.85292
upperback -0.429479 2.33861 -1.74253
thorax -4.31078 1.30946 2.34553
lowerneck -6.18599 -9.06541 -23.7129
upperneck 12.8449 -14.7115 29.749
head 9.36058 -6.68538 13.273
rclavicle 5.76476e-015 2.8625e-014
rhumerus -20.8358 -11.8726 -9.42142
rradius 34.6713
rwrist 33.5746
rhand -26.6257 -10.986
rfingers 7.12502
rthumb -0.0585844 -40.9657
lclavicle 5.76476e-015 2.8625e-014
lhumerus -25.7636 -14.6297 3.71743
lradius 26.2627
lwrist -7.2434
lhand -31.8422 23.1344
lfingers 7.12502
lthumb -5.09632 53.0531
rfemur -14.5679 -189.101 -12.7946
rtibia 22.3598
rfoot 9.79137 -40.72
rtoes -37.7399
lfemur -19.3157 -8.06558 -13.4099
ltibia 36.6523
lfoot -24.1535 -0.867952
ltoes -11.0265
428
root 14.101 18.3427 -12.3512 728.09 -18.626 355.137
lowerback 6.13351 2.16452 -7.30064
upperback -0.348442 2.26901 -1.65671
thorax -4.02888 1.25442 2.14919
lowerneck -5.82224 -9.24869 -24.0883
upperneck 13.1279 -15.0949 29.7065
head 9.53499 -6.92364 13.2947
rclavicle 6.16232e-015 1.27222e-014
rhumerus -20.6768 -9.87948 -10.9398
rradius 35.858
rwrist 32.9885
rhand -26.2383 -11.2475
rfingers 7.12502
rthumb 0.315563 -41.2271
lclavicle 6.16232e-015 1.27222e-014
lhumerus -25.9082 -13.8542 4.67665
lradius 26.0888
lwrist -7.2535
lhand -31.6958 22.8394
lfingers 7.12502
lthumb -4.95499 52.7614
rfemur -15.5018 -189.738 -12.4527
rtibia 22.1475
rfoot 11.3973 -40.3796
rtoes -35.1439
lfemur -18.8004 -7.18359 -13.4078
ltibia 36.7964
lfoot -24.3787 0.428277
ltoes -11.4338
429
root 14.1647 18.3538 -12.3748 728.091 -20.7442 354.863
lowerback 5.73611 2.11184 -6.97846
upperback -0.328802 2.25767 -1.71133
thorax -3.76734 1.2342 1.92956
lowerneck -5.17151 -9.43015 -23.977
upperneck 12.9066 -15.4857 29.6832
head 9.44342 -7.16459 13.1865
rclavicle 1.70955e-014 3.81667e-014
rhumerus -20.7768 -8.76256 -12.0914
rradius 36.6779
rwrist 32.8424
rhand -25.6883 -10.9991
rfingers 7.12502
rthumb 0.846805 -40.9771
lclavicle 1.70955e-014 3.81667e-014
lhumerus -26.0303 -13.6979 5.7397
lradius 25.9763
lwrist -7.15519
lhand -31.5898 22.8741
lfingers 7.12502
lthumb -4.85264 52.7985
rfemur -16.2719 -190.866 -12.2519
rtibia 21.985
rfoot 9.62371 -41.4814
rtoes -36.2505
lfemur -18.2912 -6.74494 -13.6449
ltibia 36.6861
lfoot -24.5338 2.09674
ltoes -11.4267
430
root 14.2137 18.3759 -12.3974 728.147 -23.0157 354.404
lowerback 5.27704 2.13774 -6.621
upperback -0.292032 2.35754 -1.73882
thorax -3.4623 1.26823 1.71096
lowerneck -4.79135 -9.64158 -23.9674
upperneck 12.9474 -15.94 29.7655
head 9.53902 -7.41565 13.1534
rclavicle -3.29983e-014 1.59028e-014
rhumerus -20.6115 -9.19139 -13.0666
rradius 36.4939
rwrist 33.5753
rhand -25.3292 -10.8782
rfingers 7.12502
rthumb 1.19365 -40.8547
lclavicle -3.29983e-014 1.59028e-014
lhumerus -26.0238 -13.7891 6.78419
lradius 25.6717
lwrist -7.20769
lhand -31.3638 22.6263
lfingers 7.12502
lthumb -4.63448 52.5556
rfemur -17.0345 -191.964 -11.9122
rtibia 21.8541
rfoot 7.55587 -42.3397
rtoes -36.2047
lfemur -17.6157 -6.27453 -13.6592
ltibia 36.4158
lfoot -24.6202 3.80837
ltoes -11.5908
